<?xml version="1.0" standalone="no"?>
<!DOCTYPE svg PUBLIC "-//W3C//DTD SVG 20010904//EN"
 "http://www.w3.org/TR/2001/REC-SVG-20010904/DTD/svg10.dtd">
<svg version="1.0" xmlns="http://www.w3.org/2000/svg"
 width="512.000000pt" height="512.000000pt" viewBox="0 0 512.000000 512.000000"
 preserveAspectRatio="xMidYMid meet">

<g transform="translate(0.000000,512.000000) scale(0.100000,-0.100000)"
fill="#ffffff" stroke="none">
<path d="M559 3980 c-209 -25 -393 -154 -489 -344 -71 -142 -70 -119 -70
-1076 0 -957 -1 -934 70 -1076 99 -196 278 -319 503 -344 110 -13 3864 -13
3974 0 225 25 404 148 503 344 71 142 70 119 70 1076 0 957 1 934 -70 1076
-99 196 -278 319 -503 344 -98 12 -3891 11 -3988 0z m4001 -220 c115 -22 213
-88 275 -185 68 -107 65 -56 65 -1015 0 -959 3 -908 -65 -1015 -62 -97 -160
-163 -275 -185 -73 -14 -3927 -14 -4000 0 -115 22 -213 88 -275 185 -68 107
-65 56 -65 1015 0 959 -3 908 65 1015 60 94 160 163 267 184 63 13 3943 13
4008 1z"/>
<path d="M1251 3589 l-31 -31 0 -998 0 -998 31 -31 31 -31 1278 0 1278 0 31
31 31 31 0 998 0 998 -31 31 -31 31 -1278 0 -1278 0 -31 -31z m2439 -1029 l0
-850 -1130 0 -1130 0 0 850 0 850 1130 0 1130 0 0 -850z"/>
<path d="M2505 3194 c-249 -55 -449 -257 -499 -506 -20 -97 -20 -159 0 -256
39 -192 173 -368 345 -450 200 -96 415 -92 604 13 125 69 185 145 169 211 -5
19 -65 88 -167 192 l-161 162 161 163 c102 103 162 172 167 191 16 66 -44 142
-169 211 -133 73 -308 101 -450 69z m293 -234 c28 -12 52 -25 52 -28 0 -3 -69
-76 -154 -161 -162 -164 -177 -189 -156 -247 6 -16 79 -97 161 -179 82 -83
149 -153 149 -157 0 -17 -112 -51 -185 -56 -129 -8 -239 34 -329 124 -231 230
-132 618 183 719 68 22 211 14 279 -15z"/>
<path d="M650 3501 c-57 -19 -110 -53 -148 -96 -128 -145 -83 -375 91 -467 62
-33 203 -33 267 0 63 33 115 86 142 146 31 70 31 182 1 247 -27 60 -93 125
-151 152 -50 22 -161 32 -202 18z m137 -233 c46 -43 21 -128 -42 -144 -53 -13
-114 48 -101 102 16 63 96 86 143 42z"/>
<path d="M4295 3493 c-253 -91 -274 -430 -35 -555 64 -33 205 -33 267 0 102
54 163 152 163 263 0 85 -22 147 -72 204 -81 91 -213 127 -323 88z m155 -223
c43 -43 32 -112 -23 -138 -82 -39 -157 69 -95 135 28 30 89 32 118 3z"/>
<path d="M4355 2637 c-64 -29 -78 -118 -27 -169 52 -53 135 -38 168 30 42 88
-51 179 -141 139z"/>
<path d="M680 2585 c-39 -21 -50 -51 -52 -150 l-3 -90 -90 -3 c-100 -2 -130
-13 -151 -54 -22 -43 -17 -84 15 -120 29 -32 32 -33 128 -38 l98 -5 5 -95 c7
-109 10 -120 49 -143 47 -28 88 -22 127 17 34 34 34 34 34 130 l0 96 96 0 c96
0 96 0 130 34 39 39 45 80 17 127 -23 39 -34 42 -143 49 l-95 5 -5 98 c-5 96
-6 99 -38 128 -36 32 -80 37 -122 14z"/>
<path d="M4093 2363 c-30 -6 -70 -49 -78 -84 -11 -47 22 -101 70 -118 36 -12
45 -12 76 3 114 54 57 222 -68 199z"/>
<path d="M4653 2363 c-36 -7 -73 -59 -73 -102 0 -46 23 -79 67 -98 92 -38 183
75 127 156 -15 21 -73 53 -91 50 -4 -1 -18 -4 -30 -6z"/>
<path d="M4329 2051 c-53 -54 -37 -143 31 -171 60 -25 130 10 145 73 26 101
-101 172 -176 98z"/>
<path d="M3194 1070 c-38 -15 -66 -61 -60 -99 7 -44 29 -67 99 -102 69 -35 90
-68 62 -99 -39 -43 -120 -14 -150 54 -13 31 -13 30 -14 -33 -1 -56 1 -62 14
-51 12 10 21 10 41 1 55 -25 141 -5 164 38 5 11 10 36 10 56 0 43 -26 73 -96
108 -67 34 -89 59 -75 86 26 48 110 28 136 -32 14 -32 14 -32 14 28 1 40 -2
55 -8 46 -8 -12 -16 -13 -49 -3 -45 14 -59 14 -88 2z"/>
<path d="M680 1023 l1 -48 15 27 c16 31 43 48 74 48 20 0 20 -4 18 -147 l-3
-147 -25 -7 c-14 -4 17 -7 70 -7 53 0 84 3 70 7 l-25 7 -3 147 c-2 143 -2 147
18 147 31 0 58 -17 74 -48 l15 -27 1 48 0 47 -150 0 -150 0 0 -47z"/>
<path d="M1353 1059 c13 -8 17 -23 17 -64 l0 -54 -27 15 c-55 31 -111 -16
-120 -99 -11 -93 71 -163 129 -110 17 15 18 15 18 -1 0 -14 6 -16 38 -10 45 8
77 23 50 24 -16 0 -18 14 -18 155 l0 155 -52 0 c-41 -1 -49 -3 -35 -11z m-1
-126 c14 -12 18 -31 18 -83 0 -68 -10 -90 -42 -90 -35 0 -52 108 -26 165 13
29 25 31 50 8z"/>
<path d="M1941 1059 c34 -12 39 -32 39 -145 0 -141 -12 -177 -55 -160 -12 4
-13 10 -3 31 10 21 9 29 -5 43 -13 13 -21 14 -35 6 -27 -17 -26 -51 2 -79 35
-35 106 -35 141 0 24 23 25 30 25 139 0 123 8 162 37 169 10 3 -25 5 -77 5
-73 0 -89 -2 -69 -9z"/>
<path d="M3439 988 c-26 -27 -40 -48 -33 -48 11 0 14 -19 14 -83 0 -96 14
-127 60 -127 16 0 36 7 44 16 21 20 20 21 -6 20 -22 -1 -23 3 -26 87 l-3 87
31 0 c16 0 30 5 30 10 0 6 -13 10 -29 10 -27 0 -30 3 -33 38 l-3 37 -46 -47z"/>
<path d="M1023 950 c-60 -36 -69 -141 -16 -194 33 -34 98 -36 132 -5 64 60 51
173 -24 205 -45 18 -54 18 -92 -6z m77 -19 c15 -30 13 -144 -4 -167 -12 -15
-18 -17 -33 -8 -14 9 -19 26 -21 82 -3 74 8 112 33 112 8 0 19 -9 25 -19z"/>
<path d="M1553 950 c-60 -36 -69 -141 -16 -194 33 -34 98 -36 132 -5 64 60 51
173 -24 205 -45 18 -54 18 -92 -6z m77 -19 c15 -30 13 -144 -4 -167 -12 -15
-18 -17 -33 -8 -14 9 -19 26 -21 82 -3 74 8 112 33 112 8 0 19 -9 25 -19z"/>
<path d="M2465 956 c-51 -23 -74 -86 -55 -155 13 -47 42 -71 88 -71 41 0 68
14 83 43 12 21 11 21 -8 5 -11 -10 -29 -18 -41 -18 -26 0 -62 45 -62 76 0 23
4 24 61 24 l62 0 -7 32 c-12 61 -66 89 -121 64z m53 -18 c7 -7 12 -22 12 -35
0 -19 -5 -23 -30 -23 -25 0 -30 4 -30 23 0 21 16 47 30 47 3 0 11 -5 18 -12z"/>
<path d="M2672 955 c-57 -25 -64 -95 -13 -127 19 -11 18 -12 -5 -31 -27 -21
-31 -50 -11 -69 12 -10 11 -15 -6 -28 -16 -14 -18 -20 -8 -38 21 -39 151 -43
191 -7 24 21 27 77 6 94 -8 7 -41 15 -73 17 -80 8 -88 11 -73 29 7 8 29 15 50
15 23 0 48 8 65 22 23 18 26 26 22 60 -4 28 -2 38 9 38 8 0 14 7 14 15 0 11
-11 15 -39 15 -21 0 -51 2 -67 5 -16 3 -44 -2 -62 -10z m78 -25 c15 -29 9 -81
-12 -93 -23 -15 -48 8 -48 45 0 60 38 90 60 48z m44 -233 c17 -13 17 -14 1
-30 -24 -25 -111 -23 -124 1 -7 13 -6 23 1 30 16 16 100 15 122 -1z"/>
<path d="M2944 961 c-41 -18 -64 -60 -64 -118 0 -47 4 -59 29 -84 23 -23 38
-29 71 -29 33 0 48 6 71 29 25 26 29 37 29 85 0 47 -4 61 -27 86 -30 32 -75
45 -109 31z m55 -25 c8 -9 11 -45 9 -98 -3 -81 -4 -83 -27 -83 -20 0 -27 7
-34 35 -16 61 4 160 33 160 4 0 13 -6 19 -14z"/>
<path d="M3633 960 c-54 -22 -80 -119 -48 -180 19 -36 43 -50 88 -50 115 0
144 191 35 229 -36 13 -45 13 -75 1z m55 -19 c17 -10 27 -106 15 -151 -7 -28
-14 -35 -34 -35 -23 0 -24 2 -27 83 -3 97 10 126 46 103z"/>
<path d="M3955 958 c-11 -6 -25 -19 -32 -27 -11 -14 -12 -13 -13 7 0 20 -5 22
-47 22 -37 0 -44 -3 -35 -12 17 -17 16 -195 0 -201 -7 -3 16 -6 52 -6 49 0 61
2 48 10 -14 8 -18 23 -18 67 0 70 21 108 49 90 10 -6 26 -8 35 -5 21 8 21 53
0 61 -19 7 -15 8 -39 -6z"/>
<path d="M4095 956 c-51 -23 -74 -86 -55 -155 13 -47 42 -71 88 -71 41 0 68
14 83 43 12 21 11 21 -8 5 -11 -10 -29 -18 -41 -18 -26 0 -62 45 -62 76 0 23
4 24 61 24 l62 0 -7 32 c-12 61 -66 89 -121 64z m53 -18 c7 -7 12 -22 12 -35
0 -19 -5 -23 -30 -23 -25 0 -30 4 -30 23 0 21 16 47 30 47 3 0 11 -5 18 -12z"/>
<path d="M2133 942 c13 -14 17 -38 17 -100 0 -60 4 -85 16 -96 20 -20 53 -20
82 0 12 8 22 10 22 5 0 -6 21 -11 47 -11 37 0 44 3 35 12 -8 8 -12 47 -12 110
l0 98 -46 0 c-39 0 -45 -2 -35 -14 8 -9 11 -43 9 -92 -2 -61 -7 -79 -21 -88
-28 -17 -37 8 -37 107 l0 87 -47 0 c-44 0 -45 -1 -30 -18z"/>
</g>
</svg>
